<svg xmlns="http://www.w3.org/2000/svg" width="853.333" height="853.333" preserveAspectRatio="xMidYMid meet" version="1.0" viewBox="0 0 640 640"><metadata>Created by potrace 1.11, written by Peter Selinger 2001-2013</metadata><g fill="#000" stroke="none"><path d="M3658 6095 c-2 -2 -30 -6 -63 -10 -86 -10 -110 -13 -110 -15 0 -1 -11 -3 -25 -4 -14 -2 -35 -6 -47 -10 -13 -4 -35 -9 -49 -12 -86 -16 -375 -128 -415 -161 -8 -7 -19 -13 -22 -13 -23 0 -223 -138 -325 -224 -61 -52 -222 -220 -222 -232 0 -4 -8 -14 -18 -23 -48 -43 -239 -370 -225 -385 4 -3 1 -6 -5 -6 -7 0 -12 -11 -12 -25 0 -14 -3 -25 -8 -25 -6 0 -43 -105 -59 -165 -1 -5 -7 -28 -13 -50 -5 -22 -13 -56 -16 -75 -3 -19 -9 -50 -14 -69 -5 -19 -7 -37 -5 -41 8 -13 -22 -31 -57 -36 -18 -3 -53 -11 -78 -18 -25 -8 -49 -14 -55 -14 -23 -2 -180 -58 -183 -64 -2 -5 -10 -8 -18 -8 -8 0 -29 -8 -47 -17 -18 -9 -34 -18 -37 -18 -3 0 -15 -6 -27 -13 -13 -7 -23 -9 -23 -5 0 4 -4 3 -8 -3 -4 -6 -34 -25 -67 -43 -79 -43 -227 -146 -290 -202 -107 -94 -275 -275 -275 -297 0 -4 -12 -18 -25 -31 -14 -12 -23 -27 -20 -31 3 -4 -2 -10 -10 -14 -8 -3 -15 -11 -15 -17 0 -7 -10 -26 -23 -43 -13 -17 -30 -46 -38 -63 -8 -18 -17 -33 -21 -33 -5 0 -7 -3 -6 -7 1 -5 -7 -26 -19 -48 -42 -81 -118 -295 -129 -362 -3 -20 -8 -44 -10 -54 -2 -11 -6 -29 -9 -42 -3 -12 -8 -44 -11 -72 -3 -27 -7 -61 -9 -75 -7 -47 -7 -255 0 -325 4 -38 13 -101 21 -138 7 -38 13 -72 12 -75 -1 -4 4 -27 11 -52 7 -25 14 -49 16 -55 3 -12 5 -20 45 -130 44 -120 159 -345 181 -353 5 -2 9 -8 9 -14 0 -12 66 -101 108 -144 6 -7 12 -15 12 -19 0 -9 200 -206 234 -230 27 -20 48 -37 94 -76 12 -10 23 -18 25 -17 1 1 22 -11 47 -28 25 -17 70 -44 100 -61 30 -16 64 -35 75 -41 60 -32 211 -91 226 -88 3 0 12 -4 20 -11 8 -6 26 -14 39 -17 14 -3 52 -12 85 -21 70 -17 110 -26 145 -30 14 -2 39 -5 55 -8 75 -14 149 -19 265 -19 144 0 179 3 375 37 83 14 265 71 353 111 29 13 57 24 62 24 6 0 10 5 10 12 0 6 3 9 6 5 4 -3 27 5 53 20 98 54 136 78 139 85 2 4 8 8 14 8 8 0 71 43 88 60 3 3 21 16 40 30 80 56 300 276 300 300 0 5 4 10 8 12 12 5 92 116 92 128 0 5 5 10 10 10 6 0 10 6 10 14 0 8 4 16 9 18 5 2 11 10 13 18 2 8 6 17 9 20 14 11 98 184 93 192 -3 4 0 8 5 8 6 0 11 8 11 18 0 10 4 22 9 27 7 9 42 103 47 130 1 6 9 37 17 70 19 72 26 107 33 160 8 60 10 62 119 80 82 13 325 99 337 118 4 7 8 9 8 5 0 -12 180 83 180 95 0 6 3 8 6 4 7 -6 157 93 187 125 10 10 21 18 26 18 7 0 178 166 232 226 118 132 244 346 317 539 35 94 84 274 77 286 -3 4 -2 10 3 13 4 2 9 22 10 44 2 22 5 50 8 63 16 65 7 415 -13 504 -4 20 -9 44 -17 88 -8 37 -34 130 -46 162 -6 17 -11 31 -11 32 5 28 -158 358 -190 383 -3 3 -12 16 -19 30 -28 53 -109 149 -220 260 -108 108 -137 133 -191 170 -12 8 -34 25 -49 38 -15 12 -31 22 -35 22 -3 0 -21 11 -38 24 -100 75 -407 205 -547 232 -14 3 -33 7 -42 10 -26 8 -60 15 -93 19 -16 2 -46 7 -65 10 -36 6 -397 15 -402 10z" transform="translate(0.000000,640.000000) scale(0.100000,-0.100000)"/><path d="M1233 6034 c-43 -18 -55 -75 -29 -136 4 -9 9 -22 10 -30 2 -7 6 -22 10 -33 5 -11 12 -32 18 -47 11 -29 4 -48 -16 -48 -7 0 -26 -6 -42 -14 -163 -78 -213 -104 -265 -137 -33 -22 -64 -39 -69 -39 -6 0 -10 -4 -10 -10 0 -5 -5 -10 -11 -10 -6 0 -16 -6 -23 -12 -8 -7 -24 -20 -36 -28 -12 -8 -39 -30 -59 -47 -20 -18 -39 -33 -43 -33 -17 0 -268 -264 -268 -282 0 -4 -4 -8 -10 -8 -5 0 -10 -5 -10 -10 0 -10 -6 -18 -36 -53 -21 -25 -120 -195 -152 -262 -36 -74 -43 -92 -61 -140 -6 -16 -16 -43 -22 -60 -7 -16 -13 -34 -15 -40 -15 -47 -51 -190 -58 -230 -14 -72 -19 -104 -20 -130 -1 -17 -5 -36 -10 -43 -4 -7 -2 -12 6 -12 8 0 9 -3 3 -8 -11 -8 -13 -47 -2 -58 4 -4 7 -16 7 -26 0 -21 43 -67 81 -87 30 -15 139 -23 154 -11 6 5 12 8 15 8 58 2 151 108 148 169 -1 16 5 61 17 133 3 14 9 40 14 58 5 17 7 32 4 32 -3 0 0 7 7 15 7 8 10 15 7 15 -5 0 22 88 40 130 3 8 8 24 10 34 2 11 10 27 18 36 8 9 15 22 15 29 0 26 114 212 179 291 100 123 321 320 359 320 5 0 12 4 14 8 5 13 107 72 123 72 8 0 15 3 15 8 0 5 78 43 100 48 3 0 13 4 23 9 10 4 19 6 21 4 2 -2 20 -50 41 -107 30 -82 43 -106 65 -117 14 -7 35 -12 46 -10 10 2 23 4 27 4 9 1 83 77 152 156 22 26 54 61 70 79 17 18 59 66 95 107 36 40 82 90 102 111 20 21 34 38 32 38 -3 0 11 16 31 35 19 20 35 40 35 45 0 6 5 10 10 10 12 0 53 65 56 88 2 8 -2 25 -8 38 -16 34 -57 47 -283 89 -11 2 -20 4 -20 5 0 1 -16 3 -35 5 -37 5 -71 11 -98 19 -9 3 -35 7 -56 11 -21 3 -48 7 -60 10 -34 8 -79 16 -116 21 -19 3 -51 9 -70 14 -19 5 -55 12 -80 15 -24 4 -47 8 -50 9 -3 2 -20 -3 -37 -10z" transform="translate(0.000000,640.000000) scale(0.100000,-0.100000)"/><path d="M5728 2746 c-21 -5 -38 -13 -38 -18 0 -4 -6 -8 -13 -8 -20 0 -64 -50 -81 -92 -9 -20 -18 -58 -21 -85 -2 -26 -7 -61 -11 -76 -3 -16 -7 -38 -9 -50 -13 -102 -111 -360 -167 -439 -11 -16 -16 -28 -11 -28 4 0 3 -4 -3 -8 -5 -4 -25 -31 -44 -59 -18 -29 -37 -53 -42 -53 -4 0 -8 -5 -8 -10 0 -19 -146 -172 -234 -245 -63 -53 -217 -155 -233 -155 -7 0 -13 -4 -13 -10 0 -5 -9 -10 -19 -10 -11 0 -21 -4 -23 -8 -5 -15 -140 -64 -148 -55 -6 6 -41 101 -45 123 -4 21 -35 77 -47 88 -46 38 -90 20 -173 -73 -33 -37 -71 -80 -85 -95 -14 -15 -50 -55 -80 -90 -30 -35 -71 -80 -90 -101 -19 -21 -60 -66 -90 -100 -30 -34 -72 -81 -92 -103 -45 -49 -62 -87 -54 -120 9 -38 46 -57 141 -72 17 -2 41 -7 55 -11 14 -3 36 -8 50 -9 14 -2 43 -7 65 -13 22 -5 56 -12 75 -15 38 -6 167 -31 215 -41 31 -7 58 -11 113 -20 19 -2 37 -7 41 -9 4 -3 30 -8 57 -11 27 -4 51 -7 54 -8 24 -4 69 18 79 39 16 36 14 49 -19 144 -36 103 -36 108 -7 119 62 25 73 29 79 31 4 1 51 25 105 54 54 29 114 62 133 72 19 10 39 25 43 32 4 6 15 12 22 12 8 0 15 5 15 10 0 6 7 10 15 10 8 0 15 4 15 9 0 5 8 12 18 15 9 3 34 21 55 40 20 19 37 33 37 31 0 -5 80 68 144 131 51 51 91 96 136 154 19 25 38 47 42 48 5 2 8 10 8 17 0 8 6 18 13 22 8 4 17 15 20 23 4 8 24 43 46 77 83 132 187 377 216 508 2 11 7 34 10 50 3 17 8 37 11 46 2 9 7 34 10 55 2 22 7 47 10 57 10 32 12 177 3 183 -5 3 -7 10 -4 15 4 5 2 9 -4 9 -5 0 -12 8 -15 18 -16 49 -143 81 -228 58z" transform="translate(0.000000,640.000000) scale(0.100000,-0.100000)"/></g></svg>